<svg width="60" height="57" viewBox="0 0 60 57" fill="none" xmlns="http://www.w3.org/2000/svg">
<path d="M27.1354 1.79842C27.9145 -0.599474 31.3069 -0.599473 32.086 1.79842L37.2919 17.8204C37.6403 18.8928 38.6396 19.6188 39.7672 19.6188H56.6137C59.135 19.6188 60.1833 22.8452 58.1436 24.3272L44.5144 34.2293C43.6022 34.8921 43.2205 36.0668 43.569 37.1392L48.7748 53.1612C49.5539 55.5591 46.8094 57.5531 44.7697 56.0711L31.1405 46.169C30.2283 45.5062 28.9931 45.5062 28.0809 46.169L14.4518 56.0711C12.412 57.5531 9.66749 55.5591 10.4466 53.1612L15.6525 37.1392C16.0009 36.0668 15.6192 34.8921 14.707 34.2293L1.07786 24.3272C-0.961911 22.8452 0.0863934 19.6188 2.60769 19.6188H19.4542C20.5818 19.6188 21.5811 18.8928 21.9295 17.8204L27.1354 1.79842Z" fill="#F8D082"/>
<g clip-path="url(#clip0_25_417)">
<path d="M33.9333 30.9235C34.4887 30.8944 35.0117 30.8001 35.5199 30.852C37.8163 31.0866 39.5312 32.8422 39.7645 35.1432C39.9745 37.2141 38.9445 38.9181 37.0077 39.6712C35.5647 40.2324 34.1092 40.3211 32.6547 39.706C31.6442 39.2787 30.8591 38.6074 30.41 37.5825C30.3876 37.5317 30.356 37.4843 30.3224 37.424C29.8969 37.4468 29.4799 37.4703 29.0628 37.4917C26.7655 37.6088 24.4686 37.7331 22.1708 37.8371C21.5503 37.8651 20.9273 37.8351 20.3051 37.8224C20.1608 37.8185 20.0177 37.7947 19.8799 37.7517C19.4726 37.6261 19.3372 37.3443 19.4801 36.9461C20.0935 35.2078 21.0374 33.6049 22.2595 32.2259C23.7507 30.549 25.5701 29.4915 27.8255 29.26C29.3686 29.1016 30.8504 29.361 32.275 29.9629C32.5845 30.0834 32.8862 30.223 33.1786 30.3808C33.4396 30.5481 33.6915 30.7292 33.9333 30.9235ZM32.789 31.5269C31.5867 30.9864 30.4241 30.5407 29.1366 30.4813C27.3453 30.3985 25.7244 30.8497 24.3085 31.9542C22.7868 33.1412 21.6721 34.6659 20.7707 36.3572C20.7317 36.444 20.6986 36.5333 20.6715 36.6245C21.489 36.6986 29.632 36.1425 30.1463 35.9788C30.159 35.9185 30.1782 35.8498 30.1876 35.7798C30.3138 34.9183 30.5981 34.0877 31.0261 33.3297C31.1697 33.0793 31.3486 32.8509 31.5573 32.6515C31.936 32.2786 32.3416 31.9324 32.7892 31.5269H32.789ZM34.7972 38.6146C35.4937 38.6102 36.1812 38.4561 36.8132 38.1626C37.2928 37.9491 37.6946 37.592 37.9631 37.1403C38.585 36.089 38.4652 34.3887 37.6784 33.4541C37.0514 32.7094 36.2679 32.195 35.2794 32.1135C34.1327 32.0191 33.1583 32.4252 32.4959 33.3759C31.8325 34.3281 31.6725 35.4306 31.7944 36.5706C31.8512 37.0369 32.0836 37.464 32.4442 37.7647C33.1151 38.3619 33.9125 38.6096 34.7973 38.6146H34.7972Z" fill="black"/>
<path d="M28.0983 28.2522C27.115 28.2118 26.1518 28.0075 25.3051 27.4061C24.3488 26.7267 23.5937 25.4626 24.1865 23.8842C24.3359 23.4773 24.5383 23.0921 24.7885 22.7383C25.1305 22.2708 25.5079 21.8303 25.9176 21.4209C26.8396 20.4893 28.413 20.2584 29.5242 20.9409C30.9816 21.8358 31.8285 23.1798 31.995 24.876C32.0938 25.8828 31.646 26.7408 30.847 27.3809C30.0544 28.0158 29.1217 28.2296 28.0983 28.2522ZM27.9665 26.9686C28.5817 26.9531 29.1797 26.8792 29.7157 26.5489C30.4449 26.0995 30.7392 25.3601 30.5203 24.5343C30.3495 23.8888 29.9983 23.3466 29.5467 22.8676C29.0968 22.3905 28.5704 22.0682 27.8854 22.0474C27.1313 22.0245 26.5606 22.4298 26.0353 22.8712C25.6504 23.1946 25.4172 23.6637 25.2602 24.1557C24.9121 25.2466 25.293 26.1338 26.3283 26.6286C26.8477 26.8774 27.4035 26.9449 27.9665 26.9685V26.9686Z" fill="black"/>
<path d="M35.623 35.8897C35.623 36.3007 35.6295 36.6335 35.62 36.9658C35.6179 37.11 35.5948 37.2531 35.5515 37.3907C35.5243 37.4824 35.4676 37.5626 35.3903 37.6189C35.313 37.6753 35.2193 37.7046 35.1237 37.7023C35.028 37.7078 34.9334 37.6805 34.8552 37.625C34.777 37.5695 34.7201 37.489 34.6937 37.3968C34.6496 37.23 34.6273 37.0583 34.6273 36.8859C34.6174 36.5711 34.6245 36.2557 34.6245 35.8931C34.2398 35.8931 33.8813 35.9029 33.5238 35.8896C33.293 35.8843 33.0633 35.8561 32.8382 35.8056C32.7392 35.7834 32.6505 35.7285 32.5865 35.6497C32.5226 35.571 32.4868 35.473 32.4852 35.3714C32.4836 35.2699 32.516 35.1708 32.5775 35.09C32.639 35.0092 32.7258 34.9515 32.824 34.9261C33.0045 34.8768 33.1906 34.8503 33.3778 34.8475C33.7789 34.8363 34.1806 34.8441 34.5978 34.8441C34.5978 34.4354 34.596 34.0771 34.5987 33.7191C34.5924 33.5895 34.6003 33.4597 34.6224 33.3319C34.6647 33.1518 34.7707 33.0147 34.9801 33.0126C35.0685 33.0061 35.1562 33.0316 35.2275 33.0843C35.2988 33.1371 35.3488 33.2136 35.3686 33.3001C35.423 33.5395 35.4617 33.7823 35.4843 34.0269C35.5143 34.2821 35.5297 34.5389 35.552 34.8051C35.8045 34.8051 36.0187 34.8112 36.2323 34.8034C36.4781 34.7945 36.7234 34.7615 36.969 34.76C37.3612 34.7576 37.6087 34.9471 37.6303 35.244C37.6505 35.522 37.4479 35.7496 37.084 35.8095C36.7979 35.8503 36.5099 35.8764 36.2211 35.8876C36.0367 35.8987 35.8511 35.8897 35.623 35.8897Z" fill="black"/>
</g>
<defs>
<clipPath id="clip0_25_417">
<rect width="20.3861" height="19.7327" fill="white" transform="translate(19.4177 20.4644)"/>
</clipPath>
</defs>
</svg>
