<svg width="1440" height="151" viewBox="0 0 1440 151" fill="none" xmlns="http://www.w3.org/2000/svg">
<circle cx="25" cy="25.9008" r="25" fill="#6161FE"/>
<circle cx="75" cy="25.9008" r="25" fill="#6161FE"/>
<circle cx="125" cy="25.9008" r="25" fill="#6161FE"/>
<circle cx="175" cy="25.9008" r="25" fill="#6161FE"/>
<circle cx="225" cy="25.9008" r="25" fill="#6161FE"/>
<circle cx="275" cy="25.9008" r="25" fill="#6161FE"/>
<circle cx="325" cy="25.9008" r="25" fill="#6161FE"/>
<circle cx="375" cy="25.9008" r="25" fill="#6161FE"/>
<circle cx="425" cy="25.9008" r="25" fill="#6161FE"/>
<circle cx="475" cy="25.9008" r="25" fill="#6161FE"/>
<circle cx="525" cy="25.9008" r="25" fill="#6161FE"/>
<circle cx="575" cy="25.9008" r="25" fill="#6161FE"/>
<circle cx="625" cy="25.9008" r="25" fill="#6161FE"/>
<circle cx="675" cy="25.9008" r="25" fill="#6161FE"/>
<circle cx="725" cy="25.9008" r="25" fill="#6161FE"/>
<circle cx="775" cy="25.9008" r="25" fill="#6161FE"/>
<circle cx="825" cy="25.9008" r="25" fill="#6161FE"/>
<circle cx="875" cy="25.9008" r="25" fill="#6161FE"/>
<circle cx="925" cy="25.9008" r="25" fill="#6161FE"/>
<circle cx="975" cy="25.9008" r="25" fill="#6161FE"/>
<circle cx="1025" cy="25.9008" r="25" fill="#6161FE"/>
<circle cx="1075" cy="25.9008" r="25" fill="#6161FE"/>
<circle cx="1125" cy="25.9008" r="25" fill="#6161FE"/>
<circle cx="1175" cy="25.9008" r="25" fill="#6161FE"/>
<circle cx="1225" cy="25.9008" r="25" fill="#6161FE"/>
<circle cx="1275" cy="25.9008" r="25" fill="#6161FE"/>
<circle cx="1325" cy="25.9008" r="25" fill="#6161FE"/>
<circle cx="1375" cy="25.9008" r="25" fill="#6161FE"/>
<circle cx="1425" cy="25.9008" r="25" fill="#6161FE"/>
<circle cx="25" cy="75.9008" r="25" fill="#6161FE"/>
<circle cx="75" cy="75.9008" r="25" fill="#E5F2E4"/>
<circle cx="125" cy="75.9008" r="25" fill="#6161FE"/>
<circle cx="175" cy="75.9008" r="25" fill="#6161FE"/>
<circle cx="225" cy="75.9008" r="25" fill="white"/>
<circle cx="275" cy="75.9008" r="25" fill="#6161FE"/>
<circle cx="325" cy="75.9008" r="25" fill="#6161FE"/>
<circle cx="375" cy="75.9008" r="25" fill="#6161FE"/>
<circle cx="425" cy="75.9008" r="25" fill="#6161FE"/>
<circle cx="475" cy="75.9008" r="25" fill="#FBA351"/>
<circle cx="525" cy="75.9008" r="25" fill="#6161FE"/>
<circle cx="575" cy="75.9008" r="25" fill="#6161FE"/>
<circle cx="625" cy="75.9008" r="25" fill="#6161FE"/>
<circle cx="675" cy="75.9008" r="25" fill="#6161FE"/>
<circle cx="725" cy="75.9008" r="25" fill="#FF621F"/>
<circle cx="775" cy="75.9008" r="25" fill="#60AFEE"/>
<circle cx="825" cy="75.9008" r="25" fill="#6161FE"/>
<circle cx="875" cy="75.9008" r="25" fill="#6161FE"/>
<circle cx="925" cy="75.9008" r="25" fill="white"/>
<circle cx="975" cy="75.9008" r="25" fill="#6161FE"/>
<circle cx="1025" cy="75.9008" r="25" fill="#6161FE"/>
<circle cx="1075" cy="75.9008" r="25" fill="#3E8469"/>
<circle cx="1125" cy="75.9008" r="25" fill="#6161FE"/>
<circle cx="1175" cy="75.9008" r="25" fill="#6161FE"/>
<circle cx="1225" cy="75.9008" r="25" fill="#6161FE"/>
<circle cx="1275" cy="75.9008" r="25" fill="#6161FE"/>
<circle cx="1325" cy="75.9008" r="25" fill="#6161FE"/>
<circle cx="1375" cy="75.9008" r="25" fill="#6161FE"/>
<circle cx="1425" cy="75.9008" r="25" fill="#6161FE"/>
<circle cx="25" cy="125.901" r="25" fill="#3E8469"/>
<circle cx="75" cy="125.901" r="25" fill="#6161FE"/>
<circle cx="125" cy="125.901" r="25" fill="white"/>
<circle cx="175" cy="125.901" r="25" fill="#6161FE"/>
<circle cx="225" cy="125.901" r="25" fill="white"/>
<circle cx="275" cy="125.901" r="25" fill="white"/>
<circle cx="325" cy="125.901" r="25" fill="#FF621F"/>
<circle cx="375" cy="125.901" r="25" fill="#6161FE"/>
<circle cx="425" cy="125.901" r="25" fill="#6161FE"/>
<circle cx="475" cy="125.901" r="25" fill="#6161FE"/>
<circle cx="525" cy="125.901" r="25" fill="white"/>
<circle cx="575" cy="125.901" r="25" fill="white"/>
<circle cx="625" cy="125.901" r="25" fill="white"/>
<circle cx="675" cy="125.901" r="25" fill="#6161FE"/>
<circle cx="725" cy="125.901" r="25" fill="white"/>
<circle cx="775" cy="125.901" r="25" fill="#6161FE"/>
<circle cx="825" cy="125.901" r="25" fill="#6161FE"/>
<circle cx="875" cy="125.901" r="25" fill="#6161FE"/>
<circle cx="925" cy="125.901" r="25" fill="white"/>
<circle cx="975" cy="125.901" r="25" fill="#6161FE"/>
<circle cx="1025" cy="125.901" r="25" fill="white"/>
<circle cx="1075" cy="125.901" r="25" fill="white"/>
<circle cx="1125" cy="125.901" r="25" fill="#6161FE"/>
<circle cx="1175" cy="125.901" r="25" fill="#FBA351"/>
<circle cx="1225" cy="125.901" r="25" fill="#6161FE"/>
<circle cx="1275" cy="125.901" r="25" fill="#6161FE"/>
<circle cx="1325" cy="125.901" r="25" fill="white"/>
<circle cx="1375" cy="125.901" r="25" fill="white"/>
<circle cx="1425" cy="125.901" r="25" fill="white"/>
</svg>
