<svg width="16" height="16" viewBox="0 0 16 16" fill="none" xmlns="http://www.w3.org/2000/svg">
<rect width="16" height="16" fill="white" style="mix-blend-mode:multiply"/>
<path d="M8.00001 1C6.54186 1.00177 5.14394 1.5818 4.11288 2.61287C3.08181 3.64394 2.50178 5.04185 2.50001 6.5C2.49828 7.69163 2.88758 8.85092 3.60816 9.8C3.60816 9.8 3.75816 9.99725 3.78226 10.0259L8.00001 15L12.2195 10.0237C12.2417 9.99705 12.3919 9.7998 12.3919 9.7998L12.3926 9.7986C13.1128 8.84987 13.5018 7.69109 13.5 6.5C13.4982 5.04185 12.9182 3.64394 11.8871 2.61287C10.8561 1.5818 9.45815 1.00177 8.00001 1ZM10.1055 6.85105L8.00101 9L5.89456 6.85105C5.64147 6.58994 5.49995 6.24058 5.49995 5.87695C5.49995 5.51332 5.64147 5.16396 5.89456 4.90285C6.01858 4.77536 6.1669 4.67403 6.33076 4.60484C6.49461 4.53564 6.67067 4.49999 6.84853 4.49999C7.02639 4.49999 7.20245 4.53564 7.3663 4.60484C7.53016 4.67403 7.67848 4.77536 7.80251 4.90285L8.00101 5.1057L8.19751 4.90285C8.32153 4.77536 8.46985 4.67403 8.63371 4.60484C8.79756 4.53564 8.97362 4.49999 9.15148 4.49999C9.32934 4.49999 9.5054 4.53564 9.66926 4.60484C9.83311 4.67403 9.98143 4.77536 10.1055 4.90285C10.3585 5.16396 10.5001 5.51332 10.5001 5.87695C10.5001 6.24058 10.3585 6.58994 10.1055 6.85105Z" fill="#161616"/>
</svg>
