<svg width="49" height="57" viewBox="0 0 49 57" fill="none" xmlns="http://www.w3.org/2000/svg">
<path d="M24.4999 0L48.9997 14.145V42.435L24.4999 56.58L0 42.435L0 14.145L24.4999 0Z" fill="#ECCCE9"/>
<path d="M9.59185 33.29H8.21585V22.57H9.44785L14.2318 29.386L15.3358 31.05L15.2558 29.418V22.57H16.6318V33.29H15.3998L10.4878 26.314L9.52785 24.89L9.59185 26.298V33.29ZM20.7012 33.29H19.3252V22.57H20.7012V33.29ZM25.4692 28.874H19.7892V27.642H25.4692V28.874ZM26.5092 23.802H19.7892V22.57H26.5092V23.802ZM31.6972 33.29H30.3212V22.57H31.6972V33.29ZM35.0892 23.802H26.9292V22.57H35.0892V23.802ZM38.0013 33.45C37.468 33.45 36.956 33.37 36.4653 33.21C35.9747 33.05 35.548 32.8153 35.1853 32.506C34.8333 32.186 34.5667 31.786 34.3853 31.306L35.3933 30.522C35.4893 30.81 35.644 31.0926 35.8573 31.37C36.0813 31.6366 36.3747 31.8553 36.7373 32.026C37.1 32.1966 37.5373 32.282 38.0493 32.282C38.508 32.282 38.876 32.1966 39.1533 32.026C39.4307 31.8446 39.5693 31.5833 39.5693 31.242C39.5693 30.89 39.4093 30.6393 39.0893 30.49C38.78 30.3406 38.4013 30.2126 37.9533 30.106L36.9293 29.866C36.5667 29.7806 36.2093 29.658 35.8573 29.498C35.5053 29.3273 35.212 29.098 34.9773 28.81C34.7427 28.5113 34.6253 28.1273 34.6253 27.658C34.6253 26.954 34.876 26.3993 35.3773 25.994C35.8787 25.5886 36.5507 25.386 37.3933 25.386C38.2147 25.386 38.8973 25.5726 39.4413 25.946C39.996 26.3193 40.38 26.762 40.5933 27.274L39.5373 28.058C39.3453 27.5993 39.0627 27.2366 38.6893 26.97C38.3267 26.7033 37.868 26.57 37.3133 26.57C36.908 26.57 36.5773 26.6553 36.3213 26.826C36.0653 26.9966 35.9373 27.2473 35.9373 27.578C35.9373 27.9193 36.0653 28.17 36.3213 28.33C36.588 28.49 36.9827 28.634 37.5053 28.762L38.4973 29.018C39.372 29.2206 39.9747 29.5086 40.3053 29.882C40.6467 30.2446 40.8173 30.6926 40.8173 31.226C40.8173 31.738 40.684 32.1593 40.4173 32.49C40.1613 32.81 39.82 33.05 39.3933 33.21C38.9773 33.37 38.5133 33.45 38.0013 33.45Z" fill="black"/>
</svg>
