<svg width="64" height="65" viewBox="0 0 64 65" fill="none" xmlns="http://www.w3.org/2000/svg">
<path d="M32 4.14459C26.4621 4.14459 21.0486 5.78676 16.444 8.86344C11.8395 11.9401 8.25064 16.3131 6.13139 21.4295C4.01213 26.5458 3.45764 32.1757 4.53802 37.6071C5.61841 43.0386 8.28515 48.0277 12.201 51.9436C16.1169 55.8595 21.106 58.5262 26.5375 59.6066C31.969 60.687 37.5988 60.1325 42.7151 58.0132C47.8315 55.894 52.2045 52.3051 55.2812 47.7006C58.3578 43.096 60 37.6825 60 32.1446C60 24.7185 57.05 17.5966 51.799 12.3456C46.548 7.09458 39.4261 4.14459 32 4.14459V4.14459ZM28 44.1446H24V20.1446H28V44.1446ZM40 44.1446H36V20.1446H40V44.1446Z" fill="white"/>
</svg>
