<svg width="64" height="65" viewBox="0 0 64 65" fill="none" xmlns="http://www.w3.org/2000/svg">
<path d="M32 4.14459C26.4621 4.14459 21.0486 5.78676 16.444 8.86344C11.8395 11.9401 8.25064 16.3131 6.13139 21.4295C4.01213 26.5458 3.45764 32.1757 4.53802 37.6071C5.61841 43.0386 8.28515 48.0277 12.201 51.9436C16.1169 55.8595 21.106 58.5262 26.5375 59.6066C31.969 60.687 37.5988 60.1325 42.7151 58.0132C47.8315 55.894 52.2045 52.3051 55.2812 47.7006C58.3578 43.096 60 37.6825 60 32.1446C60 24.7185 57.05 17.5966 51.799 12.3456C46.548 7.09458 39.4261 4.14459 32 4.14459V4.14459ZM46.8946 33.9336L22.8946 45.9336C22.5897 46.0861 22.2508 46.1581 21.9102 46.1428C21.5696 46.1275 21.2386 46.0254 20.9485 45.8461C20.6585 45.6669 20.4191 45.4164 20.2531 45.1186C20.0871 44.8208 20 44.4855 20 44.1446V20.1446C20 19.8036 20.0871 19.4683 20.2531 19.1705C20.4191 18.8727 20.6585 18.6223 20.9485 18.4431C21.2386 18.2638 21.5696 18.1617 21.9102 18.1464C22.2508 18.1311 22.5897 18.2031 22.8946 18.3556L46.8946 30.3556C47.2269 30.5217 47.5064 30.777 47.7017 31.093C47.897 31.409 48.0005 31.7731 48.0005 32.1446C48.0005 32.5161 47.897 32.8802 47.7017 33.1962C47.5064 33.5122 47.2269 33.7675 46.8946 33.9336Z" fill="white"/>
</svg>
