<svg width="22" height="22" viewBox="0 0 22 22" fill="none" xmlns="http://www.w3.org/2000/svg">
<rect width="22" height="22" fill="white" style="mix-blend-mode:multiply"/>
<path d="M19.9375 18.9653L14.7455 13.7732C15.9931 12.2754 16.6152 10.3543 16.4825 8.40945C16.3497 6.46461 15.4722 4.64584 14.0326 3.33147C12.5931 2.0171 10.7022 1.30834 8.7533 1.35263C6.80444 1.39691 4.94768 2.19084 3.56928 3.56924C2.19087 4.94765 1.39695 6.8044 1.35267 8.75326C1.30838 10.7021 2.01714 12.593 3.33151 14.0326C4.64588 15.4722 6.46465 16.3497 8.40948 16.4824C10.3543 16.6152 12.2755 15.9931 13.7733 14.7454L18.9653 19.9375L19.9375 18.9653ZM2.75004 8.9375C2.75004 7.71373 3.11293 6.51744 3.79282 5.49991C4.47271 4.48238 5.43907 3.68932 6.56969 3.221C7.7003 2.75268 8.9444 2.63015 10.1447 2.86889C11.3449 3.10764 12.4474 3.69694 13.3128 4.56228C14.1781 5.42762 14.7674 6.53012 15.0062 7.73038C15.2449 8.93064 15.1224 10.1747 14.654 11.3054C14.1857 12.436 13.3927 13.4023 12.3751 14.0822C11.3576 14.7621 10.1613 15.125 8.93754 15.125C7.29707 15.1232 5.72431 14.4707 4.56433 13.3107C3.40434 12.1507 2.75186 10.578 2.75004 8.9375Z" fill="#161616"/>
</svg>
