<svg width="57" height="57" viewBox="0 0 57 57" fill="none" xmlns="http://www.w3.org/2000/svg">
<path d="M28.2901 0L34.0599 10.5325L44.9186 5.40293L43.3956 17.3153L55.1956 19.548L46.9615 28.2901L55.1956 37.0322L43.3956 39.2649L44.9186 51.1772L34.0599 46.0477L28.2901 56.5802L22.5203 46.0477L11.6616 51.1772L13.1846 39.2649L1.38461 37.0322L9.61863 28.2901L1.38461 19.548L13.1846 17.3153L11.6616 5.40293L22.5203 10.5325L28.2901 0Z" fill="#F4C8C6"/>
<path d="M18.0553 37.7975C18.5831 38.1997 19.2247 38.42 19.8855 38.4258C20.3834 38.4198 20.874 38.3036 21.3228 38.0853C22.3537 37.6021 22.879 36.7313 22.8842 35.497C22.8846 35.4076 22.8852 35.3183 22.8861 35.2289C22.8873 35.1012 22.8884 34.9735 22.8884 34.8459V32.8942C22.8884 31.2213 22.889 29.5485 22.8901 27.8757C22.8903 27.8406 22.8923 27.8055 22.8962 27.7706C23.0277 27.7177 23.1565 27.6691 23.281 27.622C23.5664 27.5215 23.8451 27.4023 24.1153 27.2654C25.5385 26.5028 26.9823 25.7221 28.3787 24.9673C29.7428 24.2298 31.1535 23.4672 32.543 22.7221C32.9599 22.4987 33.3824 22.3035 33.8298 22.0968C33.9926 22.0216 34.1564 21.9459 34.321 21.8683V29.5024C34.2781 29.4672 34.2359 29.4324 34.1943 29.398C34.0146 29.242 33.8246 29.0984 33.6258 28.9684C32.8292 28.4728 31.9975 28.458 31.221 28.9254C30.1993 29.5406 29.5934 30.507 29.4688 31.7203C29.3153 33.2175 30.1352 34.4163 31.5097 34.7035C32.8371 34.9806 34.1054 34.5895 34.9878 33.6294C35.8098 32.7356 36.1378 31.5277 35.8438 30.4767C35.8159 30.349 35.8053 30.218 35.8122 30.0873C35.8122 30.0561 35.8122 30.025 35.8122 29.9941C35.8027 28.7677 35.7935 27.5413 35.7845 26.3149C35.765 23.6982 35.7442 21.0816 35.7218 18.465C35.727 18.1317 35.6893 17.7992 35.6096 17.4758C35.551 17.2659 35.364 17.0031 35.1642 16.9444C34.7602 16.8258 34.2791 16.7418 33.7758 17.0169C32.5731 17.6738 31.2817 18.3413 29.9373 19.0008C26.9267 20.4777 24.5578 21.7906 22.4837 23.1322C22.3209 23.2376 22.1382 23.4835 22.1268 23.6973C22.014 25.8459 21.912 28.1099 21.8236 30.4268C21.804 30.9395 21.8089 31.4542 21.814 31.9993C21.816 32.2166 21.8182 32.4402 21.8188 32.6711L21.6768 32.6146C21.5344 32.5581 21.4314 32.5173 21.3305 32.4714C21.2237 32.4228 21.1157 32.3672 21.0115 32.3135C20.804 32.1982 20.5863 32.1027 20.3613 32.0283C19.1648 31.6751 18.2067 31.8886 17.5136 32.6622C17.2017 33.029 16.9674 33.4565 16.8251 33.9184C16.6827 34.3804 16.6355 34.8668 16.6862 35.348C16.7368 35.829 16.8844 36.2946 17.1197 36.7158C17.355 37.1369 17.6731 37.5049 18.0544 37.7969L18.0553 37.7975ZM21.8194 35.0226C21.8204 35.086 21.8213 35.146 21.8179 35.2057C21.7476 36.4094 21.2168 37.0259 20.0967 37.206C19.1981 37.3493 18.2543 36.7418 17.9016 35.7907C17.5943 34.9626 17.7053 34.1437 18.2314 33.3568C18.4905 32.9692 18.8714 32.7813 19.4116 32.7813C19.8787 32.784 20.3387 32.8966 20.7554 33.1099C21.6214 33.5355 21.9597 34.1095 21.8198 34.9166C21.8189 34.922 21.8185 34.9273 21.8185 34.9328C21.8185 34.9626 21.8189 34.9927 21.8194 35.0226ZM22.9294 26.7923V23.7805L34.3929 18.0036V20.377L22.9294 26.7923ZM34.4096 32.3376C34.2171 32.8258 33.771 33.0872 33.4306 33.2205C33.1519 33.3292 32.8559 33.4136 32.5695 33.4949C32.4452 33.5302 32.3207 33.5655 32.1971 33.6029C31.1692 33.521 30.5209 32.8075 30.5823 31.823C30.6023 31.4327 30.7068 31.0517 30.8885 30.7069C31.0702 30.362 31.3246 30.0618 31.6337 29.8275C31.8687 29.6305 32.163 29.5205 32.4681 29.5156C32.6695 29.5171 32.8678 29.5654 33.0478 29.6567C33.986 30.1192 34.4127 30.6846 34.4309 31.4899C34.4329 31.569 34.4388 31.6502 34.4448 31.7319C34.4604 31.9458 34.4766 32.1671 34.4095 32.3376H34.4096Z" fill="black"/>
</svg>
