<svg width="1440" height="98" viewBox="0 0 1440 98" fill="none" xmlns="http://www.w3.org/2000/svg">
<path d="M1440 20.3815V0.813599C1433.25 0.813599 1428.85 2.86823 1424.74 5.31421C1424.64 5.41205 1424.44 5.50989 1424.35 5.50989C1423.56 5.90125 1422.88 6.39044 1422.19 6.7818C1422.1 6.87964 1421.9 6.97748 1421.8 6.97748C1417.4 9.61914 1412.8 12.0651 1405.56 12.0651C1389.91 12.0651 1386.78 0.813599 1371.12 0.813599C1367.7 0.813599 1364.86 1.40063 1362.41 2.18335C1361.43 2.47687 1360.46 2.86823 1359.58 3.35742C1359.18 3.5531 1358.79 3.74878 1358.4 3.94446C1357.33 4.5315 1356.25 5.11853 1355.27 5.70557C1354.98 5.90125 1354.68 6.09693 1354.29 6.2926C1354.1 6.39044 1353.8 6.58612 1353.61 6.68396C1349.01 9.42346 1344.31 12.163 1336.68 12.163C1321.03 12.163 1317.9 0.911438 1302.24 0.911438C1286.59 0.911438 1283.46 12.163 1267.8 12.163C1252.15 12.163 1249.02 0.911438 1233.46 0.911438C1233.46 0.911438 1233.46 0.911438 1233.36 0.911438C1233.36 0.911438 1233.36 0.911438 1233.27 0.911438C1217.71 1.00928 1214.58 12.163 1198.92 12.163C1183.27 12.163 1180.14 0.911438 1164.48 0.911438C1148.83 0.911438 1145.7 12.163 1129.95 12.163C1114.29 12.163 1111.16 0.911438 1095.51 0.911438C1079.85 0.911438 1076.72 12.163 1061.07 12.163C1047.76 12.163 1043.46 3.94446 1032.79 1.59631C1031.72 1.30279 1030.54 1.10712 1029.27 1.00928V0.813599C1028.78 0.813599 1028.39 0.813599 1027.9 0.813599C1027.51 0.813599 1027.02 0.813599 1026.53 0.813599V0.911438C1026.14 0.911438 1025.75 1.00928 1025.26 1.00928C1024.77 1.00928 1024.48 1.10712 1024.08 1.20496C1022.52 1.49847 1021.15 1.88983 1019.88 2.37903C1019.58 2.47687 1019.19 2.57471 1018.9 2.77039C1010.97 5.99909 1006.28 12.0651 994.733 12.0651C979.079 12.0651 975.948 0.813599 960.294 0.813599C944.639 0.813599 941.508 12.0651 925.756 12.0651C910.102 12.0651 906.971 0.813599 891.317 0.813599C875.662 0.813599 872.532 12.0651 856.877 12.0651C841.223 12.0651 838.092 0.813599 822.536 0.813599C822.536 0.813599 822.536 0.813599 822.438 0.813599C822.438 0.813599 822.438 0.813599 822.34 0.813599C806.784 0.911438 803.653 12.0651 787.998 12.0651C772.344 12.0651 769.213 0.813599 753.559 0.813599C737.905 0.813599 734.774 12.0651 719.022 12.0651C703.367 12.0651 700.236 0.813599 684.582 0.813599C668.928 0.813599 665.797 12.0651 650.143 12.0651C634.978 12.0651 631.553 1.49847 617.073 0.813599C616.877 0.813599 616.584 0.813599 616.388 0.813599C616.192 0.813599 615.899 0.813599 615.703 0.813599C601.223 1.49847 597.799 12.0651 582.633 12.0651C566.979 12.0651 563.848 0.813599 548.194 0.813599C532.54 0.813599 529.409 12.0651 513.657 12.0651C498.002 12.0651 494.872 0.813599 479.217 0.813599C463.563 0.813599 460.432 12.0651 444.778 12.0651C429.124 12.0651 425.993 0.813599 410.436 0.813599C410.436 0.813599 410.436 0.813599 410.338 0.813599C410.241 0.813599 410.338 0.813599 410.241 0.813599C394.684 0.911438 391.553 12.0651 375.899 12.0651C359.658 12.0651 356.527 0.813599 340.872 0.813599C325.218 0.813599 322.087 12.0651 306.433 12.0651C290.779 12.0651 287.648 0.813599 271.993 0.813599C256.339 0.813599 253.208 12.0651 237.554 12.0651C223.269 12.0651 219.454 2.77039 207.028 1.00928V0.813599C206.343 0.813599 205.658 0.813599 205.071 0.911438C204.386 0.911438 203.799 0.813599 203.115 0.813599V1.10712C190.787 2.77039 186.873 12.163 172.589 12.163C156.934 12.163 153.803 0.911438 138.149 0.911438C122.495 0.911438 119.364 12.163 103.612 12.163C87.9576 12.163 84.8267 0.911438 69.1724 0.911438C53.5181 0.911438 50.3873 12.163 34.733 12.163C25.9274 12.163 21.1333 8.64075 15.85 5.50989C15.7521 5.41205 15.6543 5.41205 15.5565 5.31421C11.1537 2.86823 6.75092 0.813599 0 0.813599V20.3815H1440Z" fill="#E5F2E4"/>
<rect y="18.3815" width="1440" height="78.853" fill="#E5F2E4"/>
</svg>
